<?xml version="1.0" encoding="utf-8"?>
<!-- Generator: Adobe Illustrator 19.0.0, SVG Export Plug-In . SVG Version: 6.00 Build 0)  -->
<svg version="1.1" id="Layer_1" xmlns="http://www.w3.org/2000/svg" xmlns:xlink="http://www.w3.org/1999/xlink" x="0px" y="0px"
	 viewBox="-274 79 410 404" style="enable-background:new -274 79 410 404;" xml:space="preserve">
<style type="text/css">
	.st0{display:none;fill:url(#SVGID_1_);}
	.st1{display:none;fill:url(#SVGID_2_);}
	.st2{stroke:#000000;stroke-miterlimit:10;}
	.st3{fill:url(#SVGID_3_);}
	.st4{fill:url(#SVGID_4_);}
	.st5{fill:url(#SVGID_5_);}
	.st6{fill:url(#SVGID_6_);}
	.st7{fill:url(#SVGID_7_);}
	.st8{display:none;}
	.st9{display:inline;fill:url(#SVGID_8_);}
	.st10{display:inline;fill:url(#SVGID_9_);}
	.st11{display:inline;fill:url(#SVGID_10_);}
	.st12{display:inline;fill:url(#SVGID_11_);}
	.st13{display:inline;fill:url(#SVGID_12_);}
	.st14{display:inline;fill:url(#SVGID_13_);}
	.st15{display:inline;fill:url(#SVGID_14_);}
	.st16{display:inline;fill:url(#SVGID_15_);}
	.st17{display:inline;fill:url(#SVGID_16_);}
	.st18{display:inline;fill:#1524A5;}
</style>
<linearGradient id="SVGID_1_" gradientUnits="userSpaceOnUse" x1="-166.9487" y1="526.4075" x2="62.0512" y2="215.4074" gradientTransform="matrix(1 0 0 -1 0 564)">
	<stop  offset="0" style="stop-color:#41D1FF"/>
	<stop  offset="1" style="stop-color:#BD34FE"/>
</linearGradient>
<path class="st0" d="M125.6,138.5l-184,329c-3.8,6.8-13.6,6.8-17.4,0.1l-187.6-329.1c-4.2-7.4,2.1-16.3,10.4-14.8l184.2,32.9
	c1.2,0.2,2.4,0.2,3.6,0l180.3-32.9C123.4,122.3,129.8,131.1,125.6,138.5z"/>
<linearGradient id="SVGID_2_" gradientUnits="userSpaceOnUse" x1="-58.9632" y1="479.1536" x2="-17.5382" y2="194.9827" gradientTransform="matrix(1 0 0 -1 0 564)">
	<stop  offset="0" style="stop-color:#FFEA83"/>
	<stop  offset="8.333330e-002" style="stop-color:#FFDD35"/>
	<stop  offset="1" style="stop-color:#FFA800"/>
</linearGradient>
<path class="st1" d="M19,80.6l-136.2,26.7c-2.2,0.4-3.9,2.3-4,4.6l-8.4,141.5c-0.2,3.3,2.9,5.9,6.1,5.2l37.9-8.7
	c3.5-0.8,6.8,2.3,6,5.9l-11.3,55.2c-0.8,3.7,2.7,6.9,6.4,5.8l23.4-7.1c3.6-1.1,7.1,2.1,6.3,5.8l-17.9,86.6c-1.1,5.4,6.1,8.4,9.1,3.7
	l2-3.1l111-221.4c1.9-3.7-1.3-7.9-5.4-7.1l-39,7.5c-3.7,0.7-6.8-2.7-5.8-6.3l25.5-88.3C25.8,83.3,22.6,79.9,19,80.6z"/>
<rect x="-274" y="79" class="st2" width="410" height="404"/>
<g>
	
		<linearGradient id="SVGID_3_" gradientUnits="userSpaceOnUse" x1="-198.0415" y1="281.2001" x2="-198.0415" y2="-52.9975" gradientTransform="matrix(1 0 0 -1 0 564)">
		<stop  offset="0" style="stop-color:#797979"/>
		<stop  offset="0.2833" style="stop-color:#B2B2B2"/>
		<stop  offset="0.4937" style="stop-color:#DFDFDF"/>
		<stop  offset="0.4948" style="stop-color:#FFFFFF"/>
		<stop  offset="1" style="stop-color:#FFFFFF"/>
	</linearGradient>
	<path class="st3" d="M-191.8,279.2l-33.2,40.1c-17.3,21.2-20.7,49.2-9.5,74.3c2.6,5.6,5.6,10.4,9.5,14.7l69.9-84.6L-191.8,279.2z"
		/>
	
		<linearGradient id="SVGID_4_" gradientUnits="userSpaceOnUse" x1="-186.9304" y1="22.4781" x2="-186.9304" y2="386.3559" gradientTransform="matrix(1 0 0 -1 0 564)">
		<stop  offset="0" style="stop-color:#797979"/>
		<stop  offset="0.2833" style="stop-color:#B2B2B2"/>
		<stop  offset="0.4937" style="stop-color:#DFDFDF"/>
		<stop  offset="0.4948" style="stop-color:#FFFFFF"/>
		<stop  offset="1" style="stop-color:#FFFFFF"/>
	</linearGradient>
	<path class="st4" d="M-144.3,311.1c15.1-18.6,15.1-45.3,0-63.9l-36.7-44.5l0,0l-43.6-52.7c-3.9,4.3-6.9,9.5-9.5,14.7
		c-11.7,24.6-8.2,53.1,9.1,74.3l69.9,84.6L-144.3,311.1L-144.3,311.1z M-188.3,274.9L-188.3,274.9L-188.3,274.9z"/>
	
		<linearGradient id="SVGID_5_" gradientUnits="userSpaceOnUse" x1="-272.3218" y1="285.0447" x2="242.5473" y2="285.0447" gradientTransform="matrix(1 0 0 -1 0 564)">
		<stop  offset="0" style="stop-color:#13139E"/>
		<stop  offset="0.2384" style="stop-color:#2030AE"/>
		<stop  offset="0.524" style="stop-color:#2E4FBF"/>
		<stop  offset="1" style="stop-color:#13139E"/>
	</linearGradient>
	<path class="st5" d="M95.7,250.7H22.3H-92.9c5.6,18.6,5.6,38.4,0,56.6H22.3h73.4C107.4,290.4,107.4,267.9,95.7,250.7z"/>
	
		<linearGradient id="SVGID_6_" gradientUnits="userSpaceOnUse" x1="-77.595" y1="22.4781" x2="-77.595" y2="386.3559" gradientTransform="matrix(1 0 0 -1 0 564)">
		<stop  offset="0" style="stop-color:#797979"/>
		<stop  offset="0.2833" style="stop-color:#B2B2B2"/>
		<stop  offset="0.4937" style="stop-color:#DFDFDF"/>
		<stop  offset="0.4948" style="stop-color:#FFFFFF"/>
		<stop  offset="1" style="stop-color:#FFFFFF"/>
	</linearGradient>
	<path class="st6" d="M14.1,148.4c-11.2-14.7-28.9-23.7-47.5-23.7h-137.7c-8.2,0-16,1.3-23.3,3.9l43.6,53.1h117.4h72.5L14.1,148.4z"
		/>
	
		<linearGradient id="SVGID_7_" gradientUnits="userSpaceOnUse" x1="-77.3791" y1="320.3481" x2="-77.3791" y2="-118.0076" gradientTransform="matrix(1 0 0 -1 0 564)">
		<stop  offset="0" style="stop-color:#797979"/>
		<stop  offset="0.2833" style="stop-color:#B2B2B2"/>
		<stop  offset="0.4937" style="stop-color:#DFDFDF"/>
		<stop  offset="0.4948" style="stop-color:#FFFFFF"/>
		<stop  offset="1" style="stop-color:#FFFFFF"/>
	</linearGradient>
	<path class="st7" d="M-150.3,376.7l-43.6,53.1c7.3,2.6,14.7,3.9,22.9,3.9h137.7c18.6,0,36.3-8.6,47.5-23.7l25-33.2H-150.3z"/>
	<g class="st8">
		
			<linearGradient id="SVGID_8_" gradientUnits="userSpaceOnUse" x1="245.5237" y1="306.819" x2="245.5237" y2="437.0205" gradientTransform="matrix(1 0 0 -1 0 564)">
			<stop  offset="0" style="stop-color:#797979"/>
			<stop  offset="0.2833" style="stop-color:#B2B2B2"/>
			<stop  offset="0.4937" style="stop-color:#DFDFDF"/>
			<stop  offset="0.4948" style="stop-color:#FFFFFF"/>
			<stop  offset="1" style="stop-color:#FFFFFF"/>
		</linearGradient>
		<path class="st9" d="M345.2,124.6v130.8h-28.9l-137.7-91.5v91.5h-32.8V124.6h29.4l137.3,91.5v-91.5H345.2z"/>
		
			<linearGradient id="SVGID_9_" gradientUnits="userSpaceOnUse" x1="465.4688" y1="306.819" x2="465.4688" y2="437.0205" gradientTransform="matrix(1 0 0 -1 0 564)">
			<stop  offset="0" style="stop-color:#797979"/>
			<stop  offset="0.2833" style="stop-color:#B2B2B2"/>
			<stop  offset="0.4937" style="stop-color:#DFDFDF"/>
			<stop  offset="0.4948" style="stop-color:#FFFFFF"/>
			<stop  offset="1" style="stop-color:#FFFFFF"/>
		</linearGradient>
		<path class="st10" d="M448.8,153.5h-80.3v-28.9h193.8V154H483v101.9h-34.1V153.5z"/>
		
			<linearGradient id="SVGID_10_" gradientUnits="userSpaceOnUse" x1="678.7229" y1="306.819" x2="678.7229" y2="437.0205" gradientTransform="matrix(1 0 0 -1 0 564)">
			<stop  offset="0" style="stop-color:#797979"/>
			<stop  offset="0.2833" style="stop-color:#B2B2B2"/>
			<stop  offset="0.4937" style="stop-color:#DFDFDF"/>
			<stop  offset="0.4948" style="stop-color:#FFFFFF"/>
			<stop  offset="1" style="stop-color:#FFFFFF"/>
		</linearGradient>
		<path class="st11" d="M585.7,124.6h186.1V154H619.4v21.2h151.5v28.9H619.4v22h152.4v29.4H585.7L585.7,124.6L585.7,124.6z"/>
		
			<linearGradient id="SVGID_11_" gradientUnits="userSpaceOnUse" x1="896.2939" y1="306.819" x2="896.2939" y2="437.0205" gradientTransform="matrix(1 0 0 -1 0 564)">
			<stop  offset="0" style="stop-color:#797979"/>
			<stop  offset="0.2833" style="stop-color:#B2B2B2"/>
			<stop  offset="0.4937" style="stop-color:#DFDFDF"/>
			<stop  offset="0.4948" style="stop-color:#FFFFFF"/>
			<stop  offset="1" style="stop-color:#FFFFFF"/>
		</linearGradient>
		<path class="st12" d="M955.7,255.4l-40.1-46.6h-86.3v46.6h-33.7V124.6h156.3c22.9,0,40.6,17.3,40.6,38.4v5.6
			c0,20.7-13.4,36.3-34.1,39.7l38.9,47.5h-41.4V255.4z M829.2,179.5h116.6c8.2,0,13-5.6,13-12.1v-1.3c0-6.9-6-12.1-13-12.1H829.2
			V179.5z"/>
	</g>
	<g class="st8">
		
			<linearGradient id="SVGID_12_" gradientUnits="userSpaceOnUse" x1="308.9819" y1="262.2541" x2="308.9819" y2="130.3414" gradientTransform="matrix(1 0 0 -1 0 564)">
			<stop  offset="0" style="stop-color:#13139E"/>
			<stop  offset="0.2384" style="stop-color:#2030AE"/>
			<stop  offset="0.524" style="stop-color:#2E4FBF"/>
			<stop  offset="1" style="stop-color:#13139E"/>
		</linearGradient>
		<path class="st13" d="M378.5,430.7l17.7,22.9h-25.9l-15.5-19.9H258c-25.9,0-45.8-16-45.8-41.4v-47.1c0-26.3,18.6-42.7,45.3-42.7
			h103.2c25.9,0,44.9,16,44.9,42.7v46.6C405.2,411.3,394.9,425.1,378.5,430.7z M382.4,349.5c0-16.8-9.1-26.8-28.5-26.8h-90.7
			c-20.7,0-28.5,12.5-28.5,26.8v37.6c0,16.8,11.2,26.3,26.8,26.3h93.7c18.6,0,26.8-9.1,26.8-26.3v-37.6H382.4z"/>
		
			<linearGradient id="SVGID_13_" gradientUnits="userSpaceOnUse" x1="533.8915" y1="262.2541" x2="533.8915" y2="130.3414" gradientTransform="matrix(1 0 0 -1 0 564)">
			<stop  offset="0" style="stop-color:#13139E"/>
			<stop  offset="0.2384" style="stop-color:#2030AE"/>
			<stop  offset="0.524" style="stop-color:#2E4FBF"/>
			<stop  offset="1" style="stop-color:#13139E"/>
		</linearGradient>
		<path class="st14" d="M437.2,391.8v-89.4h22.9v84.2c0,16.8,11.2,26.3,26.8,26.3h94.1c18.6,0,27.2-9.1,27.2-26.3v-84.2h22.4v89.4
			c0,25.9-19,41.4-45.3,41.4H483C457.1,433.7,437.2,417.7,437.2,391.8z"/>
		
			<linearGradient id="SVGID_14_" gradientUnits="userSpaceOnUse" x1="756.2109" y1="262.2541" x2="756.2109" y2="130.3414" gradientTransform="matrix(1 0 0 -1 0 564)">
			<stop  offset="0" style="stop-color:#13139E"/>
			<stop  offset="0.2384" style="stop-color:#2030AE"/>
			<stop  offset="0.524" style="stop-color:#2E4FBF"/>
			<stop  offset="1" style="stop-color:#13139E"/>
		</linearGradient>
		<path class="st15" d="M664.7,302.5h183v19.9H688v34.5h145v19.9H688v36.7h159.7v19.9h-183V302.5z"/>
		
			<linearGradient id="SVGID_15_" gradientUnits="userSpaceOnUse" x1="970.76" y1="262.2541" x2="970.76" y2="130.3414" gradientTransform="matrix(1 0 0 -1 0 564)">
			<stop  offset="0" style="stop-color:#13139E"/>
			<stop  offset="0.2384" style="stop-color:#2030AE"/>
			<stop  offset="0.524" style="stop-color:#2E4FBF"/>
			<stop  offset="1" style="stop-color:#13139E"/>
		</linearGradient>
		<path class="st16" d="M874.1,391.8v-89.4h22.9v84.2c0,16.8,11.2,26.3,26.8,26.3h94.1c18.6,0,27.2-9.1,27.2-26.3v-84.2h22.4v89.4
			c0,25.9-19,41.4-45.3,41.4H919.8C893.9,433.7,874.1,417.7,874.1,391.8z"/>
		
			<linearGradient id="SVGID_16_" gradientUnits="userSpaceOnUse" x1="1193.0796" y1="262.2541" x2="1193.0796" y2="130.3414" gradientTransform="matrix(1 0 0 -1 0 564)">
			<stop  offset="0" style="stop-color:#13139E"/>
			<stop  offset="0.2384" style="stop-color:#2030AE"/>
			<stop  offset="0.524" style="stop-color:#2E4FBF"/>
			<stop  offset="1" style="stop-color:#13139E"/>
		</linearGradient>
		<path class="st17" d="M1101.6,302.5h183v19.9h-159.7v34.5h159.7v19.9h-159.7v36.7h159.7v19.9h-183V302.5z"/>
	</g>
	<g class="st8">
		<path class="st18" d="M150.1,418.2v16h-3.9v-36.3h3.9v16h21.2v4.3C171.3,418.2,150.1,418.2,150.1,418.2z"/>
		<path class="st18" d="M146.7,386.2v-4.3H157v-27.2h-10.4v-4.3h25v4.3h-10.8v27.2h10.8v4.3H146.7z"/>
		<path class="st18" d="M146.7,337.4v-35h3.9v30.6h6.5v-27.6h3.9v27.6h6.9v-30.6h3.9v35H146.7z"/>
	</g>
</g>
</svg>
